<svg width="30" height="30" viewBox="0 0 30 30" fill="none" xmlns="http://www.w3.org/2000/svg">
<circle cx="15" cy="17" r="5.5" fill="#FBC53A"/>
<path d="M30 15.8125C30 15.8125 24.375 5.5 15 5.5C5.625 5.5 0 15.8125 0 15.8125C0 15.8125 5.625 26.125 15 26.125C24.375 26.125 30 15.8125 30 15.8125ZM2.19937 15.8125C3.10459 14.4336 4.14744 13.1501 5.31187 11.9819C7.725 9.565 11.025 7.375 15 7.375C18.975 7.375 22.2731 9.565 24.69 11.9819C25.8544 13.1501 26.8973 14.4336 27.8025 15.8125C27.695 15.975 27.5731 16.155 27.4369 16.3525C26.8088 17.2525 25.8806 18.4525 24.69 19.6431C22.2731 22.06 18.9731 24.25 15 24.25C11.0269 24.25 7.72688 22.06 5.31 19.6431C4.14556 18.4749 3.10459 17.1914 2.19937 15.8125Z" fill="#4B390B"/>
<path d="M15.0625 11.375C13.8193 11.375 12.627 11.8689 11.7479 12.7479C10.8689 13.627 10.375 14.8193 10.375 16.0625C10.375 17.3057 10.8689 18.498 11.7479 19.3771C12.627 20.2561 13.8193 20.75 15.0625 20.75C16.3057 20.75 17.498 20.2561 18.3771 19.3771C19.2561 18.498 19.75 17.3057 19.75 16.0625C19.75 14.8193 19.2561 13.627 18.3771 12.7479C17.498 11.8689 16.3057 11.375 15.0625 11.375ZM8.5 16.0625C8.5 14.322 9.1914 12.6528 10.4221 11.4221C11.6528 10.1914 13.322 9.5 15.0625 9.5C16.803 9.5 18.4722 10.1914 19.7029 11.4221C20.9336 12.6528 21.625 14.322 21.625 16.0625C21.625 17.803 20.9336 19.4722 19.7029 20.7029C18.4722 21.9336 16.803 22.625 15.0625 22.625C13.322 22.625 11.6528 21.9336 10.4221 20.7029C9.1914 19.4722 8.5 17.803 8.5 16.0625Z" fill="#4B390B"/>
</svg>
