<svg width="60" height="60" viewBox="0 0 60 60" fill="none" xmlns="http://www.w3.org/2000/svg">
<g clip-path="url(#clip0_1166_748)">
<circle cx="27" cy="27" r="20" fill="#FBC53A"/>
<path d="M44.0325 38.79C47.6636 33.8351 49.29 27.6918 48.5861 21.5893C47.8823 15.4868 44.9003 9.87503 40.2366 5.87675C35.5729 1.87846 29.5716 -0.211476 23.4331 0.0250483C17.2947 0.261573 11.472 2.80712 7.12976 7.15241C2.78758 11.4977 0.246199 17.3223 0.0140676 23.4609C-0.218064 29.5995 1.87617 35.5994 5.87779 40.2602C9.87941 44.921 15.4933 47.899 21.5963 48.5985C27.6994 49.2979 33.8414 47.6672 38.7938 44.0325H38.79C38.9 44.1825 39.0225 44.3263 39.1575 44.4638L53.595 58.9013C54.2982 59.6049 55.252 60.0004 56.2468 60.0008C57.2416 60.0011 58.1957 59.6063 58.8994 58.9031C59.603 58.2 59.9985 57.2461 59.9989 56.2513C59.9992 55.2566 59.6044 54.3024 58.9013 53.5988L44.4638 39.1613C44.3298 39.0255 44.1856 38.9039 44.0325 38.79ZM45 24.375C45 27.0835 44.4665 29.7655 43.43 32.2679C42.3935 34.7702 40.8743 37.0439 38.9591 38.9591C37.0439 40.8743 34.7702 42.3935 32.2679 43.43C29.7655 44.4665 27.0835 45 24.375 45C21.6665 45 18.9845 44.4665 16.4822 43.43C13.9798 42.3935 11.7061 40.8743 9.79093 38.9591C7.87572 37.0439 6.3565 34.7702 5.31999 32.2679C4.28349 29.7655 3.75001 27.0835 3.75001 24.375C3.75001 18.9049 5.923 13.6589 9.79093 9.79093C13.6589 5.923 18.9049 3.75001 24.375 3.75001C29.8451 3.75001 35.0911 5.923 38.9591 9.79093C42.827 13.6589 45 18.9049 45 24.375Z" fill="#4B390B"/>
</g>
<defs>
<clipPath id="clip0_1166_748">
<rect width="60" height="60" fill="white"/>
</clipPath>
</defs>
</svg>
