<svg width="60" height="60" viewBox="0 0 60 60" fill="none" xmlns="http://www.w3.org/2000/svg">
<g clip-path="url(#clip0_1166_743)">
<path d="M8.69572 50.9663L20.3296 16.2666L44.0513 41.5111L8.69572 50.9663Z" fill="#FBC53A"/>
<path fill-rule="evenodd" clip-rule="evenodd" d="M39.9225 2.42249C40.0967 2.24788 40.3036 2.10935 40.5314 2.01482C40.7592 1.9203 41.0034 1.87164 41.25 1.87164C41.4966 1.87164 41.7408 1.9203 41.9686 2.01482C42.1964 2.10935 42.4033 2.24788 42.5775 2.42249L57.5775 17.4225C57.7521 17.5967 57.8907 17.8036 57.9852 18.0314C58.0797 18.2592 58.1284 18.5034 58.1284 18.75C58.1284 18.9966 58.0797 19.2408 57.9852 19.4686C57.8907 19.6964 57.7521 19.9033 57.5775 20.0775L50.445 27.21L47.3363 39.6337C47.0999 40.5797 46.6216 41.448 45.9484 42.1534C45.2752 42.8589 44.4302 43.3772 43.4963 43.6575L4.70251 55.2975L16.3425 16.5C16.6231 15.5672 17.1411 14.7233 17.8457 14.0508C18.5504 13.3783 19.4176 12.9004 20.3625 12.6637L32.7863 9.55874L39.9225 2.42249ZM33.1725 13.3275L21.2738 16.3012C20.9579 16.3801 20.668 16.5398 20.4326 16.7647C20.1972 16.9895 20.0244 17.2718 19.9313 17.5837L10.2938 49.7025L42.42 40.065C42.7301 39.971 43.0105 39.7983 43.234 39.5637C43.4574 39.3291 43.6163 39.0405 43.695 38.7262L46.6725 26.8237L33.1725 13.3275Z" fill="#4B390B"/>
<path fill-rule="evenodd" clip-rule="evenodd" d="M10.62 49.605L30 33.75C30.7417 33.75 31.4667 33.5301 32.0834 33.118C32.7001 32.706 33.1807 32.1203 33.4645 31.4351C33.7484 30.7498 33.8226 29.9958 33.6779 29.2684C33.5332 28.541 33.1761 27.8728 32.6516 27.3484C32.1272 26.8239 31.459 26.4668 30.7316 26.3221C30.0041 26.1774 29.2501 26.2516 28.5649 26.5355C27.8797 26.8193 27.294 27.2999 26.882 27.9166C26.4699 28.5333 26.25 29.2583 26.25 30L10.395 49.38L10.2975 49.7025L10.62 49.605Z" fill="#4B390B"/>
</g>
<defs>
<clipPath id="clip0_1166_743">
<rect width="60" height="60" fill="white"/>
</clipPath>
</defs>
</svg>
