<svg width="30" height="30" viewBox="0 0 30 30" fill="none" xmlns="http://www.w3.org/2000/svg">
<g clip-path="url(#clip0_1154_412)">
<path d="M4.34783 25.4832L10.1648 8.13334L22.0256 20.7556L4.34783 25.4832Z" fill="#FBC53A"/>
<path fill-rule="evenodd" clip-rule="evenodd" d="M19.9613 1.21128C20.0483 1.12397 20.1518 1.0547 20.2657 1.00744C20.3796 0.96018 20.5017 0.935852 20.625 0.935852C20.7483 0.935852 20.8704 0.96018 20.9843 1.00744C21.0982 1.0547 21.2017 1.12397 21.2888 1.21128L28.7888 8.71128C28.8761 8.79836 28.9453 8.90182 28.9926 9.01571C29.0399 9.12961 29.0642 9.25171 29.0642 9.37503C29.0642 9.49834 29.0399 9.62044 28.9926 9.73434C28.9453 9.84824 28.8761 9.95169 28.7888 10.0388L25.2225 13.605L23.6681 19.8169C23.5499 20.2899 23.3108 20.724 22.9742 21.0768C22.6376 21.4295 22.2151 21.6886 21.7481 21.8288L2.35126 27.6488L8.17126 8.25003C8.31154 7.78364 8.57053 7.36167 8.92287 7.02544C9.27521 6.6892 9.70882 6.45023 10.1813 6.3319L16.3931 4.7794L19.9613 1.21128ZM16.5863 6.66378L10.6369 8.15065C10.479 8.19007 10.334 8.26992 10.2163 8.38236C10.0986 8.4948 10.0122 8.63594 9.96563 8.7919L5.14688 24.8513L21.21 20.0325C21.365 19.9855 21.5053 19.8992 21.617 19.7819C21.7287 19.6646 21.8081 19.5203 21.8475 19.3632L23.3363 13.4119L16.5863 6.66378Z" fill="#4B390B"/>
<path fill-rule="evenodd" clip-rule="evenodd" d="M5.30999 24.8025L15 16.875C15.3708 16.875 15.7333 16.765 16.0417 16.559C16.35 16.353 16.5904 16.0601 16.7323 15.7175C16.8742 15.3749 16.9113 14.9979 16.839 14.6342C16.7666 14.2705 16.588 13.9364 16.3258 13.6742C16.0636 13.412 15.7295 13.2334 15.3658 13.161C15.0021 13.0887 14.6251 13.1258 14.2825 13.2677C13.9399 13.4096 13.647 13.65 13.441 13.9583C13.235 14.2666 13.125 14.6292 13.125 15L5.19749 24.69L5.14874 24.8513L5.30999 24.8025Z" fill="#4B390B"/>
</g>
<defs>
<clipPath id="clip0_1154_412">
<rect width="30" height="30" fill="white"/>
</clipPath>
</defs>
</svg>
