<svg width="60" height="60" viewBox="0 0 60 60" fill="none" xmlns="http://www.w3.org/2000/svg">
<path d="M60 31.625C60 31.625 48.75 11 30 11C11.25 11 0 31.625 0 31.625C0 31.625 11.25 52.25 30 52.25C48.75 52.25 60 31.625 60 31.625ZM4.39875 31.625C6.20918 28.8672 8.29487 26.3003 10.6237 23.9637C15.45 19.13 22.05 14.75 30 14.75C37.95 14.75 44.5463 19.13 49.38 23.9637C51.7089 26.3003 53.7946 28.8672 55.605 31.625C55.39 31.95 55.1463 32.31 54.8738 32.705C53.6175 34.505 51.7613 36.905 49.38 39.2863C44.5463 44.12 37.9462 48.5 30 48.5C22.0538 48.5 15.4538 44.12 10.62 39.2863C8.29112 36.9497 6.20918 34.3828 4.39875 31.625Z" fill="#FFF9E9"/>
<path d="M30.125 22.75C27.6386 22.75 25.254 23.7377 23.4959 25.4959C21.7377 27.254 20.75 29.6386 20.75 32.125C20.75 34.6114 21.7377 36.996 23.4959 38.7541C25.254 40.5123 27.6386 41.5 30.125 41.5C32.6114 41.5 34.996 40.5123 36.7541 38.7541C38.5123 36.996 39.5 34.6114 39.5 32.125C39.5 29.6386 38.5123 27.254 36.7541 25.4959C34.996 23.7377 32.6114 22.75 30.125 22.75ZM17 32.125C17 28.644 18.3828 25.3056 20.8442 22.8442C23.3056 20.3828 26.644 19 30.125 19C33.606 19 36.9444 20.3828 39.4058 22.8442C41.8672 25.3056 43.25 28.644 43.25 32.125C43.25 35.606 41.8672 38.9444 39.4058 41.4058C36.9444 43.8672 33.606 45.25 30.125 45.25C26.644 45.25 23.3056 43.8672 20.8442 41.4058C18.3828 38.9444 17 35.606 17 32.125Z" fill="#FFF9E9"/>
</svg>
