<svg width="32" height="32" viewBox="0 0 32 32" fill="none" xmlns="http://www.w3.org/2000/svg">
<circle cx="16" cy="18" r="5.86667" fill="#FBC53A"/>
<path d="M32 16.8666C32 16.8666 26 5.86664 16 5.86664C6 5.86664 0 16.8666 0 16.8666C0 16.8666 6 27.8666 16 27.8666C26 27.8666 32 16.8666 32 16.8666ZM2.346 16.8666C3.31156 15.3958 4.42393 14.0268 5.666 12.7806C8.24 10.2026 11.76 7.86664 16 7.86664C20.24 7.86664 23.758 10.2026 26.336 12.7806C27.5781 14.0268 28.6904 15.3958 29.656 16.8666C29.5413 17.04 29.4113 17.232 29.266 17.4426C28.596 18.4026 27.606 19.6826 26.336 20.9526C23.758 23.5306 20.238 25.8666 16 25.8666C11.762 25.8666 8.242 23.5306 5.664 20.9526C4.42193 19.7065 3.31156 18.3375 2.346 16.8666Z" fill="black"/>
<path d="M16.0667 12.1334C14.7406 12.1334 13.4688 12.6601 12.5311 13.5978C11.5934 14.5355 11.0667 15.8073 11.0667 17.1334C11.0667 18.4594 11.5934 19.7312 12.5311 20.6689C13.4688 21.6066 14.7406 22.1334 16.0667 22.1334C17.3927 22.1334 18.6645 21.6066 19.6022 20.6689C20.5399 19.7312 21.0667 18.4594 21.0667 17.1334C21.0667 15.8073 20.5399 14.5355 19.6022 13.5978C18.6645 12.6601 17.3927 12.1334 16.0667 12.1334ZM9.06665 17.1334C9.06665 15.2768 9.80415 13.4964 11.1169 12.1836C12.4297 10.8709 14.2101 10.1334 16.0667 10.1334C17.9232 10.1334 19.7036 10.8709 21.0164 12.1836C22.3292 13.4964 23.0667 15.2768 23.0667 17.1334C23.0667 18.9899 22.3292 20.7704 21.0164 22.0831C19.7036 23.3959 17.9232 24.1334 16.0667 24.1334C14.2101 24.1334 12.4297 23.3959 11.1169 22.0831C9.80415 20.7704 9.06665 18.9899 9.06665 17.1334Z" fill="black"/>
</svg>
