<svg width="32" height="32" viewBox="0 0 32 32" fill="none" xmlns="http://www.w3.org/2000/svg">
<circle cx="16" cy="16" r="10.6667" fill="#FBC53A"/>
<path d="M21.0244 3.54431C21.063 3.41876 21.0765 3.28685 21.0642 3.15608C21.0518 3.02532 21.0138 2.89828 20.9523 2.7822C20.8908 2.66613 20.8071 2.5633 20.7059 2.47959C20.6047 2.39587 20.488 2.33292 20.3624 2.29431C20.2369 2.2557 20.105 2.2422 19.9742 2.25457C19.8435 2.26694 19.7164 2.30495 19.6003 2.36642C19.4843 2.4279 19.3814 2.51163 19.2977 2.61284C19.214 2.71405 19.151 2.83076 19.1124 2.95631L11.1124 28.9563C11.0345 29.2099 11.0604 29.484 11.1846 29.7184C11.3087 29.9528 11.5209 30.1283 11.7744 30.2063C12.028 30.2843 12.3021 30.2583 12.5365 30.1342C12.771 30.01 12.9465 29.7979 13.0244 29.5443L21.0244 3.54431ZM9.77644 8.54231C9.86956 8.6352 9.94345 8.74555 9.99386 8.86704C10.0443 8.98853 10.0702 9.11877 10.0702 9.25031C10.0702 9.38184 10.0443 9.51208 9.99386 9.63357C9.94345 9.75507 9.86956 9.86542 9.77644 9.95831L3.48244 16.2503L9.77644 22.5423C9.96421 22.7301 10.0697 22.9848 10.0697 23.2503C10.0697 23.5159 9.96421 23.7705 9.77644 23.9583C9.58866 24.1461 9.33399 24.2516 9.06844 24.2516C8.80289 24.2516 8.54821 24.1461 8.36044 23.9583L1.36044 16.9583C1.26731 16.8654 1.19343 16.7551 1.14301 16.6336C1.0926 16.5121 1.06665 16.3818 1.06665 16.2503C1.06665 16.1188 1.0926 15.9885 1.14301 15.867C1.19343 15.7455 1.26731 15.6352 1.36044 15.5423L8.36044 8.54231C8.45333 8.44918 8.56368 8.3753 8.68517 8.32488C8.80666 8.27447 8.9369 8.24852 9.06844 8.24852C9.19997 8.24852 9.33021 8.27447 9.4517 8.32488C9.5732 8.3753 9.68355 8.44918 9.77644 8.54231ZM22.3604 8.54231C22.2673 8.6352 22.1934 8.74555 22.143 8.86704C22.0926 8.98853 22.0667 9.11877 22.0667 9.25031C22.0667 9.38184 22.0926 9.51208 22.143 9.63357C22.1934 9.75507 22.2673 9.86542 22.3604 9.95831L28.6544 16.2503L22.3604 22.5423C22.2675 22.6353 22.1937 22.7457 22.1434 22.8671C22.0931 22.9886 22.0672 23.1188 22.0672 23.2503C22.0672 23.3818 22.0931 23.512 22.1434 23.6335C22.1937 23.755 22.2675 23.8653 22.3604 23.9583C22.4534 24.0513 22.5638 24.125 22.6853 24.1754C22.8067 24.2257 22.9369 24.2516 23.0684 24.2516C23.1999 24.2516 23.3301 24.2257 23.4516 24.1754C23.5731 24.125 23.6835 24.0513 23.7764 23.9583L30.7764 16.9583C30.8696 16.8654 30.9434 16.7551 30.9939 16.6336C31.0443 16.5121 31.0702 16.3818 31.0702 16.2503C31.0702 16.1188 31.0443 15.9885 30.9939 15.867C30.9434 15.7455 30.8696 15.6352 30.7764 15.5423L23.7764 8.54231C23.6835 8.44918 23.5732 8.3753 23.4517 8.32488C23.3302 8.27447 23.2 8.24852 23.0684 8.24852C22.9369 8.24852 22.8067 8.27447 22.6852 8.32488C22.5637 8.3753 22.4533 8.44918 22.3604 8.54231Z" fill="black"/>
</svg>
