<svg width="60" height="60" viewBox="0 0 60 60" fill="none" xmlns="http://www.w3.org/2000/svg">
<path d="M39.4208 6.4266C39.4932 6.1912 39.5186 5.94386 39.4954 5.69868C39.4722 5.4535 39.4009 5.21529 39.2856 4.99765C39.1704 4.78002 39.0134 4.58721 38.8236 4.43025C38.6338 4.27329 38.415 4.15524 38.1796 4.08285C37.9442 4.01046 37.6969 3.98514 37.4517 4.00834C37.2065 4.03154 36.9683 4.10281 36.7507 4.21807C36.533 4.33333 36.3402 4.49033 36.1833 4.6801C36.0263 4.86987 35.9082 5.0887 35.8359 5.3241L20.8359 54.0741C20.6896 54.5495 20.7383 55.0635 20.9711 55.503C21.2038 55.9426 21.6017 56.2716 22.0771 56.4178C22.5525 56.564 23.0665 56.5154 23.506 56.2826C23.9456 56.0499 24.2747 55.652 24.4209 55.1766L39.4208 6.4266ZM18.3309 15.7978C18.5055 15.972 18.644 16.1789 18.7385 16.4067C18.833 16.6345 18.8817 16.8787 18.8817 17.1253C18.8817 17.372 18.833 17.6162 18.7385 17.844C18.644 18.0718 18.5055 18.2787 18.3309 18.4528L6.5296 30.2503L18.3309 42.0479C18.6829 42.3999 18.8807 42.8774 18.8807 43.3754C18.8807 43.8733 18.6829 44.3508 18.3309 44.7029C17.9788 45.0549 17.5013 45.2527 17.0034 45.2527C16.5054 45.2527 16.0279 45.0549 15.6759 44.7029L2.55085 31.5778C2.37624 31.4037 2.2377 31.1968 2.14318 30.969C2.04866 30.7412 2 30.497 2 30.2503C2 30.0037 2.04866 29.7595 2.14318 29.5317C2.2377 29.3039 2.37624 29.097 2.55085 28.9228L15.6759 15.7978C15.85 15.6232 16.0569 15.4847 16.2847 15.3902C16.5125 15.2957 16.7567 15.247 17.0034 15.247C17.25 15.247 17.4942 15.2957 17.722 15.3902C17.9498 15.4847 18.1567 15.6232 18.3309 15.7978ZM41.9259 15.7978C41.7512 15.972 41.6127 16.1789 41.5182 16.4067C41.4237 16.6345 41.375 16.8787 41.375 17.1253C41.375 17.372 41.4237 17.6162 41.5182 17.844C41.6127 18.0718 41.7512 18.2787 41.9259 18.4528L53.7271 30.2503L41.9259 42.0479C41.7515 42.2222 41.6132 42.4291 41.5189 42.6569C41.4245 42.8847 41.376 43.1288 41.376 43.3754C41.376 43.6219 41.4245 43.866 41.5189 44.0938C41.6132 44.3216 41.7515 44.5285 41.9259 44.7029C42.1002 44.8772 42.3071 45.0155 42.5349 45.1098C42.7627 45.2042 43.0068 45.2527 43.2534 45.2527C43.4999 45.2527 43.744 45.2042 43.9718 45.1098C44.1996 45.0155 44.4065 44.8772 44.5809 44.7029L57.7059 31.5778C57.8805 31.4037 58.019 31.1968 58.1135 30.969C58.208 30.7412 58.2567 30.497 58.2567 30.2503C58.2567 30.0037 58.208 29.7595 58.1135 29.5317C58.019 29.3039 57.8805 29.097 57.7059 28.9228L44.5809 15.7978C44.4067 15.6232 44.1998 15.4847 43.972 15.3902C43.7442 15.2957 43.5 15.247 43.2534 15.247C43.0067 15.247 42.7625 15.2957 42.5347 15.3902C42.3069 15.4847 42.1 15.6232 41.9259 15.7978Z" fill="#FFF9E9"/>
</svg>
