<svg width="60" height="60" viewBox="0 0 60 60" fill="none" xmlns="http://www.w3.org/2000/svg">
<path fill-rule="evenodd" clip-rule="evenodd" d="M22.5 13.125C22.5 11.6332 23.0926 10.2024 24.1475 9.14752C25.2024 8.09263 26.6332 7.5 28.125 7.5H31.875C33.3668 7.5 34.7976 8.09263 35.8525 9.14752C36.9074 10.2024 37.5 11.6332 37.5 13.125V16.875C37.5 18.3668 36.9074 19.7976 35.8525 20.8525C34.7976 21.9074 33.3668 22.5 31.875 22.5V26.25H52.5C52.9973 26.25 53.4742 26.4475 53.8258 26.7992C54.1775 27.1508 54.375 27.6277 54.375 28.125V31.875C54.375 32.3723 54.1775 32.8492 53.8258 33.2008C53.4742 33.5525 52.9973 33.75 52.5 33.75C52.0027 33.75 51.5258 33.5525 51.1742 33.2008C50.8225 32.8492 50.625 32.3723 50.625 31.875V30H31.875V31.875C31.875 32.3723 31.6775 32.8492 31.3258 33.2008C30.9742 33.5525 30.4973 33.75 30 33.75C29.5027 33.75 29.0258 33.5525 28.6742 33.2008C28.3225 32.8492 28.125 32.3723 28.125 31.875V30H9.375V31.875C9.375 32.3723 9.17746 32.8492 8.82582 33.2008C8.47419 33.5525 7.99728 33.75 7.5 33.75C7.00272 33.75 6.52581 33.5525 6.17417 33.2008C5.82254 32.8492 5.625 32.3723 5.625 31.875V28.125C5.625 27.6277 5.82254 27.1508 6.17417 26.7992C6.52581 26.4475 7.00272 26.25 7.5 26.25H28.125V22.5C26.6332 22.5 25.2024 21.9074 24.1475 20.8525C23.0926 19.7976 22.5 18.3668 22.5 16.875V13.125ZM31.875 18.75C32.3723 18.75 32.8492 18.5525 33.2008 18.2008C33.5525 17.8492 33.75 17.3723 33.75 16.875V13.125C33.75 12.6277 33.5525 12.1508 33.2008 11.7992C32.8492 11.4475 32.3723 11.25 31.875 11.25H28.125C27.6277 11.25 27.1508 11.4475 26.7992 11.7992C26.4475 12.1508 26.25 12.6277 26.25 13.125V16.875C26.25 17.3723 26.4475 17.8492 26.7992 18.2008C27.1508 18.5525 27.6277 18.75 28.125 18.75H31.875ZM0 43.125C0 41.6332 0.592632 40.2024 1.64752 39.1475C2.70242 38.0926 4.13316 37.5 5.625 37.5H9.375C10.8668 37.5 12.2976 38.0926 13.3525 39.1475C14.4074 40.2024 15 41.6332 15 43.125V46.875C15 48.3668 14.4074 49.7976 13.3525 50.8525C12.2976 51.9074 10.8668 52.5 9.375 52.5H5.625C4.13316 52.5 2.70242 51.9074 1.64752 50.8525C0.592632 49.7976 0 48.3668 0 46.875L0 43.125ZM5.625 41.25C5.12772 41.25 4.65081 41.4475 4.29917 41.7992C3.94754 42.1508 3.75 42.6277 3.75 43.125V46.875C3.75 47.3723 3.94754 47.8492 4.29917 48.2008C4.65081 48.5525 5.12772 48.75 5.625 48.75H9.375C9.87228 48.75 10.3492 48.5525 10.7008 48.2008C11.0525 47.8492 11.25 47.3723 11.25 46.875V43.125C11.25 42.6277 11.0525 42.1508 10.7008 41.7992C10.3492 41.4475 9.87228 41.25 9.375 41.25H5.625ZM22.5 43.125C22.5 41.6332 23.0926 40.2024 24.1475 39.1475C25.2024 38.0926 26.6332 37.5 28.125 37.5H31.875C33.3668 37.5 34.7976 38.0926 35.8525 39.1475C36.9074 40.2024 37.5 41.6332 37.5 43.125V46.875C37.5 48.3668 36.9074 49.7976 35.8525 50.8525C34.7976 51.9074 33.3668 52.5 31.875 52.5H28.125C26.6332 52.5 25.2024 51.9074 24.1475 50.8525C23.0926 49.7976 22.5 48.3668 22.5 46.875V43.125ZM28.125 41.25C27.6277 41.25 27.1508 41.4475 26.7992 41.7992C26.4475 42.1508 26.25 42.6277 26.25 43.125V46.875C26.25 47.3723 26.4475 47.8492 26.7992 48.2008C27.1508 48.5525 27.6277 48.75 28.125 48.75H31.875C32.3723 48.75 32.8492 48.5525 33.2008 48.2008C33.5525 47.8492 33.75 47.3723 33.75 46.875V43.125C33.75 42.6277 33.5525 42.1508 33.2008 41.7992C32.8492 41.4475 32.3723 41.25 31.875 41.25H28.125ZM45 43.125C45 41.6332 45.5926 40.2024 46.6475 39.1475C47.7024 38.0926 49.1332 37.5 50.625 37.5H54.375C55.8668 37.5 57.2976 38.0926 58.3525 39.1475C59.4074 40.2024 60 41.6332 60 43.125V46.875C60 48.3668 59.4074 49.7976 58.3525 50.8525C57.2976 51.9074 55.8668 52.5 54.375 52.5H50.625C49.1332 52.5 47.7024 51.9074 46.6475 50.8525C45.5926 49.7976 45 48.3668 45 46.875V43.125ZM50.625 41.25C50.1277 41.25 49.6508 41.4475 49.2992 41.7992C48.9475 42.1508 48.75 42.6277 48.75 43.125V46.875C48.75 47.3723 48.9475 47.8492 49.2992 48.2008C49.6508 48.5525 50.1277 48.75 50.625 48.75H54.375C54.8723 48.75 55.3492 48.5525 55.7008 48.2008C56.0525 47.8492 56.25 47.3723 56.25 46.875V43.125C56.25 42.6277 56.0525 42.1508 55.7008 41.7992C55.3492 41.4475 54.8723 41.25 54.375 41.25H50.625Z" fill="#FFF9E9"/>
</svg>
