<svg width="60" height="60" viewBox="0 0 60 60" fill="none" xmlns="http://www.w3.org/2000/svg">
<g clip-path="url(#clip0_1209_820)">
<path d="M30 17.8275C28.4015 17.8275 26.8186 18.1424 25.3418 18.7541C23.865 19.3658 22.5231 20.2624 21.3928 21.3928C20.2624 22.5231 19.3658 23.865 18.7541 25.3418C18.1424 26.8186 17.8275 28.4015 17.8275 30C17.8275 31.5985 18.1424 33.1814 18.7541 34.6582C19.3658 36.1351 20.2624 37.477 21.3928 38.6073C22.5231 39.7376 23.865 40.6342 25.3418 41.2459C26.8186 41.8577 28.4015 42.1725 30 42.1725C33.2284 42.1725 36.3245 40.8901 38.6073 38.6073C40.8901 36.3245 42.1725 33.2284 42.1725 30C42.1725 26.7717 40.8901 23.6755 38.6073 21.3928C36.3245 19.11 33.2284 17.8275 30 17.8275ZM21.5775 30C21.5775 27.7662 22.4649 25.6239 24.0444 24.0444C25.6239 22.4649 27.7662 21.5775 30 21.5775C32.2338 21.5775 34.3761 22.4649 35.9556 24.0444C37.5351 25.6239 38.4225 27.7662 38.4225 30C38.4225 32.2338 37.5351 34.3761 35.9556 35.9556C34.3761 37.5351 32.2338 38.4225 30 38.4225C27.7662 38.4225 25.6239 37.5351 24.0444 35.9556C22.4649 34.3761 21.5775 32.2338 21.5775 30Z" fill="#FFF9E9"/>
<path d="M36.735 5.03621C34.7587 -1.67629 25.2412 -1.67629 23.265 5.03621L22.9125 6.23246C22.7745 6.70103 22.5334 7.13277 22.2068 7.49605C21.8802 7.85932 21.4765 8.14492 21.0253 8.3319C20.574 8.51888 20.0866 8.60251 19.5988 8.57665C19.111 8.55079 18.6352 8.4161 18.2062 8.18246L17.1112 7.58246C10.9612 4.23746 4.23749 10.965 7.58624 17.1112L8.18249 18.2062C8.41613 18.6352 8.55082 19.111 8.57668 19.5988C8.60254 20.0866 8.51891 20.574 8.33193 21.0252C8.14495 21.4765 7.85936 21.8802 7.49608 22.2068C7.1328 22.5333 6.70106 22.7744 6.23249 22.9125L5.03624 23.265C-1.67626 25.2412 -1.67626 34.7587 5.03624 36.735L6.23249 37.0875C6.70106 37.2255 7.1328 37.4666 7.49608 37.7931C7.85936 38.1197 8.14495 38.5234 8.33193 38.9747C8.51891 39.4259 8.60254 39.9133 8.57668 40.4011C8.55082 40.8889 8.41613 41.3647 8.18249 41.7937L7.58249 42.8887C4.23749 49.0387 10.9612 55.7662 17.1112 52.4137L18.2062 51.8175C18.6352 51.5838 19.111 51.4491 19.5988 51.4233C20.0866 51.3974 20.574 51.481 21.0253 51.668C21.4765 51.855 21.8802 52.1406 22.2068 52.5039C22.5334 52.8671 22.7745 53.2989 22.9125 53.7675L23.265 54.9637C25.2412 61.6762 34.7587 61.6762 36.735 54.9637L37.0875 53.7675C37.2255 53.2989 37.4666 52.8671 37.7932 52.5039C38.1197 52.1406 38.5234 51.855 38.9747 51.668C39.426 51.481 39.9134 51.3974 40.4012 51.4233C40.8889 51.4491 41.3648 51.5838 41.7937 51.8175L42.8887 52.4175C49.0387 55.7662 55.7662 49.035 52.4137 42.8887L51.8175 41.7937C51.5838 41.3647 51.4492 40.8889 51.4233 40.4011C51.3974 39.9133 51.4811 39.4259 51.668 38.9747C51.855 38.5234 52.1406 38.1197 52.5039 37.7931C52.8672 37.4666 53.2989 37.2255 53.7675 37.0875L54.9637 36.735C61.6762 34.7587 61.6762 25.2412 54.9637 23.265L53.7675 22.9125C53.2989 22.7744 52.8672 22.5333 52.5039 22.2068C52.1406 21.8802 51.855 21.4765 51.668 21.0252C51.4811 20.574 51.3974 20.0866 51.4233 19.5988C51.4492 19.111 51.5838 18.6352 51.8175 18.2062L52.4175 17.1112C55.7662 10.9612 49.035 4.23746 42.8887 7.58621L41.7937 8.18246C41.3648 8.4161 40.8889 8.55079 40.4012 8.57665C39.9134 8.60251 39.426 8.51888 38.9747 8.3319C38.5234 8.14492 38.1197 7.85932 37.7932 7.49605C37.4666 7.13277 37.2255 6.70103 37.0875 6.23246L36.735 5.03621ZM26.8612 6.09746C27.7837 2.96621 32.2162 2.96621 33.1387 6.09746L33.4912 7.29371C33.7876 8.29903 34.3051 9.22528 35.006 10.0046C35.7068 10.7839 36.5732 11.3964 37.5415 11.7974C38.5099 12.1983 39.5557 12.3775 40.6023 12.3217C41.6489 12.2659 42.6697 11.9766 43.59 11.475L44.6812 10.875C47.5462 9.31871 50.6812 12.45 49.1212 15.3187L48.525 16.4137C48.0241 17.3341 47.7355 18.3548 47.6803 19.4012C47.6252 20.4475 47.8048 21.493 48.206 22.4609C48.6073 23.4288 49.2201 24.2947 49.9994 24.9951C50.7787 25.6955 51.7049 26.2127 52.71 26.5087L53.9025 26.8612C57.0337 27.7837 57.0337 32.2162 53.9025 33.1387L52.7062 33.4912C51.7009 33.7875 50.7747 34.3051 49.9954 35.0059C49.2161 35.7068 48.6035 36.5731 48.2026 37.5415C47.8016 38.5099 47.6225 39.5557 47.6783 40.6023C47.7341 41.6489 48.0234 42.6697 48.525 43.59L49.125 44.6812C50.6812 47.5462 47.55 50.6812 44.6812 49.1212L43.59 48.525C42.6695 48.0234 41.6484 47.7342 40.6016 47.6787C39.5548 47.6231 38.5088 47.8026 37.5404 48.2039C36.572 48.6052 35.7057 49.2182 35.005 49.9979C34.3044 50.7776 33.7871 51.7043 33.4912 52.71L33.1387 53.9025C32.2162 57.0337 27.7837 57.0337 26.8612 53.9025L26.5087 52.7062C26.2123 51.7014 25.6948 50.7757 24.9942 49.9968C24.2936 49.2178 23.4277 48.6055 22.4598 48.2046C21.4919 47.8038 20.4466 47.6245 19.4005 47.6799C18.3543 47.7353 17.3338 48.024 16.4137 48.525L15.3187 49.125C12.4537 50.6812 9.31874 47.55 10.8787 44.6812L11.475 43.59C11.9773 42.6696 12.2672 41.6484 12.3233 40.6013C12.3795 39.5543 12.2005 38.508 11.7995 37.5391C11.3985 36.5703 10.7857 35.7035 10.006 35.0024C9.22634 34.3013 8.29958 33.7836 7.29374 33.4875L6.09749 33.135C2.96624 32.2125 2.96624 27.78 6.09749 26.8575L7.29374 26.505C8.29801 26.2084 9.22326 25.691 10.0018 24.9907C10.7803 24.2903 11.3924 23.4248 11.7932 22.4574C12.194 21.49 12.3735 20.4452 12.3184 19.3995C12.2634 18.3538 11.9752 17.3337 11.475 16.4137L10.875 15.3187C9.31874 12.4537 12.45 9.3187 15.3187 10.8787L16.4137 11.475C17.3338 11.9759 18.3543 12.2646 19.4005 12.32C20.4466 12.3755 21.4919 12.1962 22.4598 11.7953C23.4277 11.3944 24.2936 10.7821 24.9942 10.0032C25.6948 9.22426 26.2123 8.2985 26.5087 7.29371L26.8612 6.09746Z" fill="#FFF9E9"/>
</g>
<defs>
<clipPath id="clip0_1209_820">
<rect width="60" height="60" fill="white"/>
</clipPath>
</defs>
</svg>
