<svg width="32" height="32" viewBox="0 0 32 32" fill="none" xmlns="http://www.w3.org/2000/svg">
<g clip-path="url(#clip0_113_354)">
<path d="M6.40002 8.53333C6.40002 3.8205 10.2205 0 14.9334 0V0C19.6462 0 23.4667 3.8205 23.4667 8.53333V11.7333H6.40002V8.53333Z" fill="#FBC53A"/>
<path d="M4.80005 10.376C4.80005 4.682 9.24005 0 14.8 0C20.36 0 24.8 4.684 24.8 10.376V21.626C24.8 27.316 20.36 32 14.8 32C9.24005 32 4.80005 27.316 4.80005 21.624V10.376ZM13.8 2.066C9.88205 2.578 6.80005 6.07 6.80005 10.376V11H13.8V2.066ZM15.8 2.066V11H22.8V10.374C22.8 6.07 19.718 2.578 15.8 2.066ZM22.8 13H6.80005V21.626C6.80005 26.29 10.42 30 14.8 30C19.18 30 22.8 26.29 22.8 21.624V13Z" fill="black"/>
</g>
<defs>
<clipPath id="clip0_113_354">
<rect width="32" height="32" fill="white"/>
</clipPath>
</defs>
</svg>
