<svg width="60" height="60" viewBox="0 0 60 60" fill="none" xmlns="http://www.w3.org/2000/svg">
<path d="M9 19.455C9 8.77875 17.325 0 27.75 0C38.175 0 46.5 8.7825 46.5 19.455V40.5487C46.5 51.2175 38.175 60 27.75 60C17.325 60 9 51.2175 9 40.545V19.455ZM25.875 3.87375C18.5287 4.83375 12.75 11.3812 12.75 19.455V20.625H25.875V3.87375ZM29.625 3.87375V20.625H42.75V19.4513C42.75 11.3813 36.9713 4.83375 29.625 3.87375ZM42.75 24.375H12.75V40.5487C12.75 49.2937 19.5375 56.25 27.75 56.25C35.9625 56.25 42.75 49.2938 42.75 40.545V24.375Z" fill="#FFF9E9"/>
</svg>
