<svg width="32" height="32" viewBox="0 0 32 32" fill="none" xmlns="http://www.w3.org/2000/svg">
<g clip-path="url(#clip0_113_338)">
<circle cx="14.3999" cy="13" r="10.6667" fill="#FBC53A"/>
<path d="M23.484 20.688C25.4206 18.0454 26.2879 14.769 25.9126 11.5143C25.5372 8.25964 23.9468 5.2667 21.4595 3.13428C18.9722 1.00186 15.7715 -0.112775 12.4976 0.0133713C9.22381 0.139518 6.11833 1.49714 3.8025 3.81463C1.48667 6.13212 0.131266 9.23857 0.00746201 12.5125C-0.116342 15.7864 1.00058 18.9863 3.13478 21.4721C5.26898 23.9579 8.26305 25.5462 11.518 25.9192C14.773 26.2922 18.0487 25.4225 20.69 23.484H20.688C20.7466 23.564 20.812 23.6407 20.884 23.714L28.584 31.414C28.959 31.7893 29.4677 32.0002 29.9983 32.0004C30.5288 32.0006 31.0377 31.79 31.413 31.415C31.7882 31.04 31.9992 30.5313 31.9994 30.0007C31.9996 29.4702 31.789 28.9613 31.414 28.586L23.714 20.886C23.6425 20.8136 23.5656 20.7487 23.484 20.688ZM24 13C24 14.4446 23.7154 15.875 23.1626 17.2095C22.6098 18.5441 21.7996 19.7568 20.7781 20.7782C19.7567 21.7996 18.5441 22.6099 17.2095 23.1627C15.8749 23.7155 14.4445 24 13 24C11.5554 24 10.125 23.7155 8.79045 23.1627C7.45587 22.6099 6.24323 21.7996 5.22179 20.7782C4.20035 19.7568 3.39009 18.5441 2.83729 17.2095C2.28449 15.875 1.99996 14.4446 1.99996 13C1.99996 10.0826 3.15889 7.28474 5.22179 5.22184C7.28469 3.15894 10.0826 2.00002 13 2.00002C15.9173 2.00002 18.7152 3.15894 20.7781 5.22184C22.841 7.28474 24 10.0826 24 13Z" fill="black"/>
</g>
<defs>
<clipPath id="clip0_113_338">
<rect width="32" height="32" fill="white"/>
</clipPath>
</defs>
</svg>
