<svg width="60" height="60" viewBox="0 0 60 60" fill="none" xmlns="http://www.w3.org/2000/svg">
<g clip-path="url(#clip0_1209_793)">
<path fill-rule="evenodd" clip-rule="evenodd" d="M39.9225 2.42256C40.0967 2.24794 40.3036 2.10941 40.5314 2.01488C40.7592 1.92036 41.0034 1.8717 41.25 1.8717C41.4966 1.8717 41.7408 1.92036 41.9686 2.01488C42.1964 2.10941 42.4033 2.24794 42.5775 2.42256L57.5775 17.4226C57.7521 17.5967 57.8906 17.8036 57.9852 18.0314C58.0797 18.2592 58.1283 18.5034 58.1283 18.7501C58.1283 18.9967 58.0797 19.2409 57.9852 19.4687C57.8906 19.6965 57.7521 19.9034 57.5775 20.0776L50.445 27.2101L47.3362 39.6338C47.0998 40.5798 46.6216 41.4481 45.9484 42.1535C45.2752 42.8589 44.4302 43.3772 43.4962 43.6576L4.7025 55.2976L16.3425 16.5001C16.6231 15.5673 17.141 14.7233 17.8457 14.0509C18.5504 13.3784 19.4176 12.9005 20.3625 12.6638L32.7862 9.55881L39.9225 2.42256ZM33.1725 13.3276L21.2737 16.3013C20.9579 16.3801 20.668 16.5398 20.4326 16.7647C20.1972 16.9896 20.0244 17.2719 19.9312 17.5838L10.2937 49.7026L42.42 40.0651C42.7301 39.9711 43.0105 39.7984 43.234 39.5637C43.4574 39.3291 43.6163 39.0406 43.695 38.7263L46.6725 26.8238L33.1725 13.3276Z" fill="#FFF9E9"/>
<path fill-rule="evenodd" clip-rule="evenodd" d="M10.62 49.605L30 33.75C30.7417 33.75 31.4667 33.5301 32.0834 33.118C32.7001 32.706 33.1807 32.1203 33.4645 31.4351C33.7484 30.7498 33.8226 29.9958 33.6779 29.2684C33.5333 28.541 33.1761 27.8728 32.6516 27.3484C32.1272 26.8239 31.459 26.4668 30.7316 26.3221C30.0042 26.1774 29.2502 26.2516 28.5649 26.5355C27.8797 26.8193 27.294 27.2999 26.882 27.9166C26.4699 28.5333 26.25 29.2583 26.25 30L10.395 49.38L10.2975 49.7025L10.62 49.605Z" fill="#FFF9E9"/>
</g>
<defs>
<clipPath id="clip0_1209_793">
<rect width="60" height="60" fill="white"/>
</clipPath>
</defs>
</svg>
