<svg width="32" height="32" viewBox="0 0 32 32" fill="none" xmlns="http://www.w3.org/2000/svg">
<g clip-path="url(#clip0_113_345)">
<path d="M4.63776 27.182L10.8425 8.67554L23.4941 22.1393L4.63776 27.182Z" fill="#FBC53A"/>
<path fill-rule="evenodd" clip-rule="evenodd" d="M21.2921 1.29202C21.3849 1.19889 21.4953 1.12501 21.6168 1.07459C21.7383 1.02418 21.8685 0.99823 22.0001 0.99823C22.1316 0.99823 22.2618 1.02418 22.3833 1.07459C22.5048 1.12501 22.6152 1.19889 22.7081 1.29202L30.7081 9.29202C30.8012 9.38491 30.8751 9.49526 30.9255 9.61675C30.9759 9.73824 31.0018 9.86848 31.0018 10C31.0018 10.1316 30.9759 10.2618 30.9255 10.3833C30.8751 10.5048 30.8012 10.6151 30.7081 10.708L26.9041 14.512L25.2461 21.138C25.12 21.6425 24.8649 22.1056 24.5059 22.4819C24.1468 22.8581 23.6961 23.1345 23.1981 23.284L2.50806 29.492L8.71606 8.80002C8.86569 8.30254 9.14195 7.85244 9.51777 7.49379C9.8936 7.13514 10.3561 6.88023 10.8601 6.75402L17.4861 5.09802L21.2921 1.29202ZM17.6921 7.10802L11.3461 8.69402C11.1776 8.73606 11.023 8.82124 10.8975 8.94117C10.7719 9.06111 10.6798 9.21166 10.6301 9.37802L5.49006 26.508L22.6241 21.368C22.7894 21.3179 22.939 21.2258 23.0582 21.1007C23.1773 20.9755 23.2621 20.8216 23.3041 20.654L24.8921 14.306L17.6921 7.10802Z" fill="black"/>
<path fill-rule="evenodd" clip-rule="evenodd" d="M5.66394 26.456L15.9999 18C16.3955 18 16.7822 17.8827 17.1111 17.6629C17.44 17.4432 17.6963 17.1308 17.8477 16.7654C17.9991 16.3999 18.0387 15.9978 17.9615 15.6098C17.8843 15.2219 17.6939 14.8655 17.4142 14.5858C17.1345 14.3061 16.7781 14.1156 16.3901 14.0384C16.0022 13.9613 15.6 14.0009 15.2346 14.1522C14.8691 14.3036 14.5568 14.56 14.337 14.8889C14.1172 15.2178 13.9999 15.6044 13.9999 16L5.54394 26.336L5.49194 26.508L5.66394 26.456Z" fill="black"/>
</g>
<defs>
<clipPath id="clip0_113_345">
<rect width="32" height="32" fill="white"/>
</clipPath>
</defs>
</svg>
