<svg width="167" height="53" viewBox="0 0 167 53" fill="none" xmlns="http://www.w3.org/2000/svg">
<g id="logo-elidesign">
<g id="Group 1">
<path id="Vector" d="M138.428 37.1535V18.1849H141.415V21.4045H141.958C142.372 20.4994 143.07 19.6848 144.053 18.9607C145.061 18.2107 146.535 17.8358 148.475 17.8358C149.897 17.8358 151.164 18.1331 152.276 18.7279C153.414 19.3227 154.319 20.202 154.991 21.3657C155.664 22.5294 156 23.9647 156 25.6715V37.1535H152.936V25.9042C152.936 24.0164 152.457 22.6458 151.5 21.7924C150.569 20.939 149.302 20.5123 147.699 20.5123C145.863 20.5123 144.363 21.1071 143.199 22.2967C142.061 23.4863 141.492 25.2577 141.492 27.611V37.1535H138.428Z" fill="black"/>
<path id="Vector_2" d="M115.841 27.7661V27.2231C115.841 25.2318 116.241 23.525 117.043 22.1027C117.845 20.6804 118.931 19.5813 120.302 18.8055C121.672 18.0297 123.172 17.6418 124.801 17.6418C126.792 17.6418 128.318 18.0297 129.379 18.8055C130.465 19.5555 131.266 20.3959 131.784 21.3269H132.327V18.1849H135.236V41.5756C135.236 42.61 134.951 43.4246 134.382 44.0194C133.814 44.6142 132.986 44.9116 131.9 44.9116H119.021V42.1963H131.085C131.861 42.1963 132.249 41.8083 132.249 41.0325V33.8175H131.706C131.396 34.3864 130.956 34.9424 130.387 35.4855C129.818 36.0285 129.081 36.4811 128.176 36.8431C127.271 37.1793 126.146 37.3474 124.801 37.3474C123.172 37.3474 121.672 36.9595 120.302 36.1837C118.931 35.4079 117.845 34.3088 117.043 32.8865C116.241 31.4383 115.841 29.7315 115.841 27.7661ZM125.616 34.6321C127.581 34.6321 129.172 34.0114 130.387 32.7701C131.628 31.5288 132.249 29.822 132.249 27.6498V27.3394C132.249 25.1413 131.628 23.4345 130.387 22.2191C129.172 20.9778 127.581 20.3571 125.616 20.3571C123.676 20.3571 122.073 20.9778 120.806 22.2191C119.564 23.4345 118.944 25.1413 118.944 27.3394V27.6498C118.944 29.822 119.564 31.5288 120.806 32.7701C122.073 34.0114 123.676 34.6321 125.616 34.6321Z" fill="black"/>
<path id="Vector_3" d="M110.101 37.1536V18.1849H113.166V37.1536H110.101ZM111.653 15.2369C110.98 15.2369 110.412 15.017 109.946 14.5774C109.506 14.1378 109.287 13.5818 109.287 12.9094C109.287 12.2112 109.506 11.6423 109.946 11.2026C110.412 10.763 110.98 10.5432 111.653 10.5432C112.325 10.5432 112.881 10.763 113.321 11.2026C113.76 11.6423 113.98 12.2112 113.98 12.9094C113.98 13.5818 113.76 14.1378 113.321 14.5774C112.881 15.017 112.325 15.2369 111.653 15.2369Z" fill="black"/>
<path id="Vector_4" d="M79.5676 37.6965C77.6539 37.6965 75.973 37.2957 74.5248 36.494C73.0766 35.6665 71.9517 34.5157 71.15 33.0417C70.3483 31.5676 69.9475 29.8608 69.9475 27.9213V27.4558C69.9475 25.4904 70.3483 23.7707 71.15 22.2967C71.9517 20.8226 73.0637 19.6848 74.486 18.8831C75.9083 18.0556 77.5375 17.6418 79.3736 17.6418C81.158 17.6418 82.7355 18.0297 84.1061 18.8055C85.4767 19.5555 86.5499 20.6416 87.3257 22.0639C88.1015 23.4862 88.4894 25.1542 88.4894 27.0679V28.4644H73.012C73.0896 30.5073 73.749 32.1107 74.9903 33.2744C76.2316 34.4123 77.7832 34.9812 79.6452 34.9812C81.2744 34.9812 82.5286 34.6062 83.4079 33.8563C84.2871 33.1063 84.9595 32.2141 85.425 31.1797L88.0627 32.4598C87.6748 33.2615 87.1318 34.0632 86.4335 34.8648C85.7612 35.6665 84.869 36.3389 83.757 36.8819C82.6708 37.425 81.2744 37.6965 79.5676 37.6965ZM73.0508 25.943H85.3862C85.2827 24.1845 84.675 22.8139 83.563 21.8312C82.4769 20.8485 81.0804 20.3571 79.3736 20.3571C77.641 20.3571 76.2187 20.8485 75.1067 21.8312C73.9947 22.8139 73.3094 24.1845 73.0508 25.943Z" fill="black"/>
<path id="Vector_5" d="M57.2817 37.6965C55.6525 37.6965 54.1526 37.3086 52.782 36.5328C51.4114 35.757 50.3252 34.6321 49.5236 33.158C48.7219 31.684 48.321 29.9384 48.321 27.9213V27.417C48.321 25.3999 48.7219 23.6672 49.5236 22.219C50.3252 20.745 51.3984 19.6201 52.7432 18.8443C54.1138 18.0426 55.6266 17.6418 57.2817 17.6418C58.6006 17.6418 59.7126 17.8228 60.6177 18.1848C61.5487 18.521 62.2986 18.9606 62.8675 19.5037C63.4365 20.0209 63.8761 20.5769 64.1864 21.1717H64.7295V10H67.7939V37.1534H64.8071V34.0114H64.264C63.7468 34.9682 62.9451 35.8216 61.859 36.5716C60.7728 37.3215 59.2471 37.6965 57.2817 37.6965ZM58.0963 34.9812C60.0617 34.9812 61.6521 34.3605 62.8675 33.1192C64.1088 31.8521 64.7295 30.0935 64.7295 27.8437V27.4946C64.7295 25.2447 64.1088 23.4991 62.8675 22.2578C61.6521 20.9907 60.0617 20.3571 58.0963 20.3571C56.1568 20.3571 54.5534 20.9907 53.2862 22.2578C52.0449 23.4991 51.4243 25.2447 51.4243 27.4946V27.8437C51.4243 30.0935 52.0449 31.8521 53.2862 33.1192C54.5534 34.3605 56.1568 34.9812 58.0963 34.9812Z" fill="black"/>
<path id="Vector_6" d="M41.6829 37.1536V18.1849H44.7473V37.1536H41.6829ZM43.2345 15.2369C42.5621 15.2369 41.9932 15.017 41.5277 14.5774C41.0881 14.1378 40.8683 13.5818 40.8683 12.9094C40.8683 12.2112 41.0881 11.6423 41.5277 11.2026C41.9932 10.763 42.5621 10.5432 43.2345 10.5432C43.9069 10.5432 44.4629 10.763 44.9025 11.2026C45.3421 11.6423 45.562 12.2112 45.562 12.9094C45.562 13.5818 45.3421 14.1378 44.9025 14.5774C44.4629 15.017 43.9069 15.2369 43.2345 15.2369Z" fill="black"/>
<path id="Vector_7" d="M35.1534 37.1534V10H38.2179V37.1534H35.1534Z" fill="black"/>
<path id="Vector_8" d="M24.5795 37.4048C22.7076 37.8027 20.9801 37.7601 19.3969 37.277C17.8083 36.7687 16.4687 35.8769 15.378 34.6018C14.2874 33.3266 13.5405 31.7405 13.1372 29.8433L13.0405 29.388C12.6318 27.4655 12.6664 25.7001 13.144 24.0916C13.6217 22.4831 14.4728 21.1389 15.6974 20.059C16.9166 18.9538 18.4242 18.2104 20.2201 17.8286C21.9655 17.4576 23.5892 17.5091 25.0911 17.983C26.5877 18.4316 27.8633 19.2708 28.9179 20.5008C29.9724 21.7307 30.6987 23.2816 31.0965 25.1535L31.3869 26.5194L16.2476 29.7374C16.7483 31.7196 17.7267 33.1508 19.1828 34.031C20.6335 34.8859 22.2695 35.1198 24.0908 34.7327C25.6844 34.3939 26.8333 33.7664 27.5374 32.85C28.2415 31.9336 28.7137 30.9212 28.9539 29.8126L31.8002 30.5163C31.5875 31.3811 31.2229 32.2781 30.7066 33.2075C30.2156 34.1314 29.4827 34.9746 28.5079 35.737C27.5585 36.494 26.249 37.0499 24.5795 37.4048ZM15.7614 27.263L27.8272 24.6983C27.3604 22.9998 26.481 21.7855 25.189 21.0554C23.9223 20.32 22.4542 20.1298 20.7847 20.4846C19.0899 20.8449 17.8008 21.6212 16.9174 22.8136C16.0341 24.006 15.6487 25.4892 15.7614 27.263Z" fill="black"/>
<path id="Subtract" d="M98.6644 18.2532C100.811 18.2532 102.543 18.7443 103.862 19.7268C105.206 20.6836 106.073 22.0415 106.461 23.8L103.59 24.5374C103.357 23.1668 102.801 22.2093 101.922 21.6663C101.043 21.0975 99.9572 20.8128 98.6644 20.8127C97.3716 20.8127 96.3499 21.0588 95.6 21.55C94.85 22.0155 94.475 22.7138 94.475 23.6448C94.475 24.5499 94.8236 25.2227 95.5219 25.6624C96.2459 26.0761 97.2034 26.3861 98.3929 26.593L99.9828 26.8645C101.327 27.0972 102.53 27.4205 103.59 27.8342C104.676 28.2221 105.53 28.7913 106.151 29.5413C106.797 30.2912 107.12 31.2741 107.12 32.4895C107.12 34.3513 106.422 35.7867 105.026 36.7952C103.655 37.8036 101.806 38.3078 99.4789 38.3079C97.1258 38.3079 95.1344 37.7649 93.5052 36.679C92.1333 35.7496 91.2267 34.3555 90.7826 32.4983L93.5638 31.1731C93.7813 32.2673 94.1483 33.1459 94.6683 33.8079C95.2372 34.506 95.9357 35.0102 96.7631 35.3206C97.6165 35.605 98.522 35.7473 99.4789 35.7473C100.901 35.7473 102.026 35.4627 102.854 34.8938C103.681 34.3249 104.095 33.5623 104.095 32.6057C104.095 31.623 103.694 30.938 102.892 30.55C102.116 30.1363 101.043 29.7999 99.6722 29.5413L98.0824 29.2698C96.8671 29.0629 95.755 28.7396 94.7465 28.3C94.0144 27.9809 93.3924 27.5785 92.8783 27.0959L92.4388 26.1721L92.1801 26.2952C91.6933 25.5833 91.4486 24.7132 91.4486 23.6838C91.4486 21.977 92.1082 20.6446 93.4271 19.6877C94.746 18.7309 96.4922 18.2532 98.6644 18.2532Z" fill="black"/>
</g>
</g>
</svg>
