<svg width="1464" height="351" viewBox="0 0 1464 351" fill="none" xmlns="http://www.w3.org/2000/svg">
<path d="M1281.98 272.84V75.7406H1321.34V109.526H1327.58C1331.22 101.73 1337.71 94.4546 1347.07 87.6986C1356.42 80.9425 1370.33 77.5645 1388.77 77.5645C1403.33 77.5645 1416.19 80.8126 1427.36 87.3088C1438.8 93.805 1447.76 103.03 1454.26 114.983C1460.75 126.676 1464 140.837 1464 157.468V272.84H1423.85V160.586C1423.85 143.956 1419.7 131.743 1411.38 123.947C1403.07 115.892 1391.63 111.864 1377.08 111.864C1360.45 111.864 1347.07 117.321 1336.93 128.235C1327.06 139.148 1322.12 154.999 1322.12 175.787V272.84H1281.98Z" fill="#FFFEFB" fill-opacity="0.937255"/>
<path d="M1059.04 177.736V171.889C1059.04 151.621 1063.07 134.341 1071.12 120.05C1079.44 105.758 1090.35 94.7145 1103.86 86.919C1117.37 79.1236 1132.18 75.2259 1148.3 75.2259C1167 75.2259 1181.3 78.7338 1191.17 85.7497C1201.3 92.7656 1208.71 100.301 1213.39 108.356H1219.62V75.4413H1258.6V312.207C1258.6 323.9 1255.09 333.254 1248.08 340.27C1241.32 347.286 1231.97 350.794 1220.01 350.794H1090.61V315.715H1207.54C1215.08 315.715 1218.84 311.817 1218.84 304.022V242.828H1212.61C1209.75 247.505 1205.72 252.312 1200.52 257.249C1195.33 262.186 1188.44 266.214 1179.87 269.332C1171.55 272.45 1161.03 274.009 1148.3 274.009C1132.18 274.009 1117.24 270.241 1103.47 262.706C1089.96 254.91 1079.18 243.867 1071.12 229.575C1063.07 215.024 1059.04 197.744 1059.04 177.736ZM1159.21 238.93C1176.62 238.93 1190.91 233.473 1202.08 222.559C1213.52 211.386 1219.23 196.055 1219.23 176.566V173.058C1219.23 153.05 1213.65 137.719 1202.47 127.065C1191.3 116.152 1176.88 110.695 1159.21 110.695C1142.06 110.695 1127.77 116.152 1116.33 127.065C1105.16 137.719 1099.57 153.05 1099.57 173.058V176.566C1099.57 196.055 1105.16 211.386 1116.33 222.559C1127.77 233.473 1142.06 238.93 1159.21 238.93Z" fill="#FFFEFB" fill-opacity="0.937255"/>
<path d="M997.9 272.84V97.4428H1038.05V272.84H997.9ZM1018.17 54.568C1010.37 54.568 1003.75 52.0994 998.29 47.1623C993.093 41.9654 990.494 35.3393 990.494 27.284C990.494 19.2287 993.093 12.7325 998.29 7.79545C1003.75 2.59849 1010.37 0 1018.17 0C1026.22 0 1032.85 2.59849 1038.05 7.79545C1043.24 12.7325 1045.84 19.2287 1045.84 27.284C1045.84 35.3393 1043.24 41.9654 1038.05 47.1623C1032.85 52.0994 1026.22 54.568 1018.17 54.568Z" fill="#FFFEFB" fill-opacity="0.937255"/>
<path d="M894.59 278.297C870.164 278.297 849.896 272.84 833.785 261.926C817.675 251.013 807.801 234.512 804.163 212.425L841.581 203.461C843.66 214.114 847.168 222.559 852.105 228.796C857.042 235.032 863.148 239.449 870.424 242.048C877.96 244.646 886.015 245.946 894.59 245.946C907.322 245.946 917.067 243.477 923.823 238.54C930.838 233.603 934.346 227.237 934.346 219.441C934.346 211.646 931.098 205.929 924.602 202.291C918.106 198.653 908.492 195.665 895.759 193.327L882.507 190.988C869.514 188.649 857.691 185.271 847.038 180.854C836.384 176.436 827.939 170.33 821.703 162.535C815.466 154.739 812.348 144.735 812.348 132.522C812.348 114.333 819.104 100.301 832.616 90.427C846.128 80.2929 864.058 75.2259 886.405 75.2259C907.972 75.2259 925.641 80.163 939.413 90.0372C953.445 99.6516 962.54 112.774 966.697 129.404L929.279 139.928C926.941 128.235 922.004 120.05 914.468 115.372C906.932 110.435 897.578 107.967 886.405 107.967C875.491 107.967 866.916 110.045 860.68 114.203C854.443 118.101 851.325 123.687 851.325 130.963C851.325 138.759 854.313 144.475 860.29 148.113C866.526 151.751 874.841 154.479 885.235 156.298L898.877 158.637C912.649 160.976 925.252 164.224 936.685 168.381C948.118 172.539 957.083 178.515 963.579 186.311C970.335 194.106 973.713 204.5 973.713 217.492C973.713 236.721 966.567 251.662 952.276 262.316C937.984 272.97 918.756 278.297 894.59 278.297Z" fill="#FFFEFB" fill-opacity="0.937255"/>
<path d="M707.768 277.832C688.327 279.192 671.068 276.361 655.99 269.34C640.894 262.061 628.682 251.323 619.353 237.128C610.267 222.655 605.034 205.569 603.657 185.869L603.33 181.203C601.935 161.243 604.738 143.595 611.741 128.258C618.725 112.662 629.064 100.347 642.759 91.3145C656.695 82.0045 673.125 76.688 692.047 75.3648C710.452 74.0778 726.813 77.1014 741.131 84.4356C755.691 91.4925 767.366 102.007 776.158 115.979C784.949 129.951 790.025 146.658 791.384 166.099L792.444 181.263L645.081 191.568C646.778 208.381 653.293 221.47 664.628 230.836C676.204 239.925 690.027 243.908 706.099 242.784C721.133 241.732 732.173 237.574 739.219 230.309C746.525 223.026 751.943 214.832 755.474 205.729L789.72 220.526C786.598 228.038 781.819 236.056 775.382 244.581C769.205 253.088 760.733 260.453 749.968 266.676C739.202 272.899 725.136 276.618 707.768 277.832ZM643.322 160.824L749.47 153.401C747.418 138.958 741.446 128.044 731.552 120.661C721.64 113.019 709.167 109.723 694.133 110.775C679.098 111.826 667.076 116.834 658.065 125.8C649.295 134.488 644.381 146.163 643.322 160.824Z" fill="#FFFEFB" fill-opacity="0.937255"/>
<path d="M466.782 278.297C450.931 278.297 436.25 274.399 422.738 266.603C409.225 258.808 398.312 247.635 389.997 233.083C381.941 218.272 377.914 200.472 377.914 179.684V173.838C377.914 153.31 381.941 135.64 389.997 120.829C398.052 106.018 408.836 94.7144 422.348 86.919C435.86 79.1235 450.671 75.2258 466.782 75.2258C479.254 75.2258 489.648 76.7849 497.963 79.9031C506.538 83.0212 513.554 87.0489 519.011 91.986C524.468 96.6633 528.625 101.6 531.484 106.797H537.72V0H577.866V272.84H538.5V245.556H532.263C527.326 253.871 519.791 261.406 509.656 268.163C499.782 274.919 485.491 278.297 466.782 278.297ZM478.085 243.217C495.495 243.217 509.786 237.63 520.96 226.457C532.393 215.284 538.11 199.303 538.11 178.515V175.007C538.11 154.479 532.523 138.629 521.35 127.455C510.176 116.282 495.755 110.695 478.085 110.695C460.935 110.695 446.643 116.282 435.21 127.455C424.037 138.629 418.45 154.479 418.45 175.007V178.515C418.45 199.303 424.037 215.284 435.21 226.457C446.643 237.63 460.935 243.217 478.085 243.217Z" fill="#FFFEFB" fill-opacity="0.937255"/>
<path d="M310.278 272.84V97.4428H330.645H350.424V272.84H310.278ZM330.546 54.568C322.751 54.568 316.125 52.0994 310.668 47.1623C305.471 41.9654 302.872 35.3393 302.872 27.284C302.872 19.2287 305.471 12.7325 310.668 7.79545C316.125 2.59849 322.751 0 330.546 0C338.601 0 345.227 2.59849 350.424 7.79545C355.621 12.7325 358.22 19.2287 358.22 27.284C358.22 35.3393 355.621 41.9654 350.424 47.1623C345.227 52.0994 338.601 54.568 330.546 54.568Z" fill="#FFFEFB" fill-opacity="0.937255"/>
<path d="M236.536 272.84V0H276.682V272.84H236.536Z" fill="#FFFEFB" fill-opacity="0.937255"/>
<path d="M137.534 275.43C118.472 279.482 100.986 279.081 85.0778 274.227C69.1155 269.119 55.5279 260.186 44.3151 247.427C33.3024 234.36 25.7431 218.168 21.6371 198.851L20.6647 194.276C16.5047 174.705 16.8247 156.838 21.6245 140.676C26.3702 124.259 34.8954 110.626 47.1999 99.7749C59.7046 88.6161 75.2341 81.0647 93.7884 77.1209C111.834 73.2851 128.457 74.0022 143.657 79.2723C159.057 84.2341 172.082 93.0215 182.733 105.634C193.383 118.247 200.734 134.085 204.786 153.147L207.947 168.016L63.4516 198.73C67.4716 215.142 75.7455 227.198 88.2735 234.895C101.002 242.285 115.245 244.305 131.003 240.955C145.745 237.822 156.099 232.167 162.065 223.992C168.286 215.763 172.511 206.895 174.741 197.389L210.713 207.276C208.667 215.149 205.051 223.755 199.863 233.093C194.929 242.376 187.565 250.849 177.77 258.509C167.976 266.17 154.564 271.81 137.534 275.43ZM57.4309 168.529L161.513 146.406C157.471 132.389 150.038 122.413 139.213 116.479C128.334 110.29 115.523 108.763 100.782 111.896C86.0398 115.029 74.8312 121.662 67.1557 131.795C59.6804 141.619 56.4388 153.864 57.4309 168.529Z" fill="#FFFEFB" fill-opacity="0.937255"/>
</svg>
